<?xml version="1.0" standalone="no"?>
<!DOCTYPE svg PUBLIC "-//W3C//DTD SVG 20010904//EN"
 "http://www.w3.org/TR/2001/REC-SVG-20010904/DTD/svg10.dtd">
<svg version="1.0" xmlns="http://www.w3.org/2000/svg"
 width="200.000000pt" height="200.000000pt" viewBox="0 0 200.000000 200.000000"
 preserveAspectRatio="xMidYMid meet">
<metadata>
Created by potrace 1.11, written by Peter Selinger 2001-2013
</metadata>
<g transform="translate(0.000000,200.000000) scale(0.100000,-0.100000)"
fill="#000000" stroke="none">
<path d="M0 1000 l0 -1000 1000 0 1000 0 0 1000 0 1000 -1000 0 -1000 0 0
-1000z m1151 298 c-32 -68 -75 -159 -95 -203 -21 -44 -74 -158 -118 -252 l-81
-173 -49 0 c-26 0 -48 2 -48 4 0 2 27 61 61 132 34 71 76 161 94 199 112 240
178 382 186 398 7 13 22 17 59 17 l49 0 -58 -122z m-483 -75 l-3 -37 -188 -70
c-103 -38 -184 -73 -180 -77 5 -4 53 -23 108 -44 55 -20 137 -50 183 -67 l82
-31 0 -38 c0 -22 -3 -39 -8 -39 -7 0 -115 41 -345 131 l-138 54 3 39 3 38 220
88 c121 48 230 88 243 89 21 1 23 -3 20 -36z m912 -52 l225 -88 3 -39 3 -39
-223 -87 c-123 -48 -231 -90 -241 -94 -16 -6 -18 -2 -15 36 3 48 -15 38 231
126 70 26 129 50 132 53 2 4 -79 38 -181 77 l-184 69 0 38 c0 23 5 37 13 37 6
0 113 -40 237 -89z"/>
</g>
</svg>
