<?xml version="1.0" standalone="no"?>
<!DOCTYPE svg PUBLIC "-//W3C//DTD SVG 20010904//EN"
 "http://www.w3.org/TR/2001/REC-SVG-20010904/DTD/svg10.dtd">
<svg version="1.0" xmlns="http://www.w3.org/2000/svg"
 width="349.000000pt" height="349.000000pt" viewBox="0 0 349.000000 349.000000"
 preserveAspectRatio="xMidYMid meet">
<metadata>
Created by potrace 1.11, written by Peter Selinger 2001-2013
</metadata>
<g transform="translate(0.000000,349.000000) scale(0.100000,-0.100000)"
fill="#000000" stroke="none">
<path d="M0 1745 l0 -1745 1745 0 1745 0 0 1745 0 1745 -1745 0 -1745 0 0
-1745z m1229 836 c170 -44 269 -112 319 -219 25 -52 27 -68 27 -177 0 -115 -1
-123 -32 -185 -39 -80 -92 -133 -169 -170 -49 -23 -56 -29 -39 -35 68 -24 145
-67 179 -100 80 -80 119 -223 98 -366 -29 -201 -164 -336 -399 -401 -73 -20
-105 -22 -495 -26 l-418 -4 0 857 0 857 423 -5 c393 -4 428 -5 506 -26z m951
-504 c0 -343 4 -554 11 -592 18 -100 60 -160 139 -201 55 -29 190 -26 254 5
51 25 95 81 118 151 8 25 13 201 15 603 l4 567 230 0 230 0 -3 -597 c-3 -529
-6 -605 -21 -658 -28 -98 -84 -201 -145 -267 -133 -143 -309 -208 -567 -208
-373 0 -599 141 -696 435 -24 70 -24 72 -27 683 l-3 612 231 0 230 0 0 -533z"/>
<path d="M760 2110 l0 -150 104 0 c143 0 195 21 233 94 25 48 13 123 -25 157
-42 38 -89 49 -209 49 l-103 0 0 -150z"/>
<path d="M760 1440 l0 -182 133 4 c110 2 138 6 166 23 56 33 75 67 79 143 3
58 0 72 -20 102 -13 19 -44 46 -68 60 -39 21 -61 25 -167 28 l-123 4 0 -182z"/>
</g>
</svg>
